<?xml version="1.0" encoding="UTF-8" standalone="no"?><!DOCTYPE svg PUBLIC "-//W3C//DTD SVG 1.1//EN" "http://www.w3.org/Graphics/SVG/1.1/DTD/svg11.dtd"><svg width="100%" height="100%" viewBox="0 0 155 55" version="1.1" xmlns="http://www.w3.org/2000/svg" xmlns:xlink="http://www.w3.org/1999/xlink" xml:space="preserve" style="fill-rule:evenodd;clip-rule:evenodd;stroke-linejoin:round;stroke-miterlimit:1.41421;"><g id="Device"><path d="M0,0l40,0l0,3.073l0.017,0l0,39.289c0,2.009 -1.629,3.638 -3.638,3.638l-32.741,0c-2.009,0 -3.638,-1.629 -3.638,-3.638l0,-38.362l0,-4Z" style="fill:#3dad4b;"/><path d="M20.008,36.509c0.942,0 1.706,0.763 1.706,1.705c0,0.942 -0.764,1.705 -1.706,1.705c-0.941,0 -1.705,-0.763 -1.705,-1.705c0,-0.942 0.764,-1.705 1.705,-1.705Zm7.094,1.51c-0.814,0.47 -1.855,0.191 -2.325,-0.623c-0.471,-0.815 -0.192,-1.856 0.623,-2.326c0.814,-0.47 1.855,-0.191 2.325,0.623c0.471,0.814 0.192,1.856 -0.623,2.326Zm-12.485,-2.949c0.814,0.47 1.093,1.511 0.623,2.326c-0.47,0.814 -1.511,1.093 -2.326,0.623c-0.814,-0.47 -1.093,-1.512 -0.623,-2.326c0.47,-0.814 1.512,-1.093 2.326,-0.623Zm17.678,-2.244c-0.47,0.814 -1.511,1.093 -2.325,0.623c-0.815,-0.47 -1.094,-1.512 -0.624,-2.326c0.471,-0.814 1.512,-1.093 2.326,-0.623c0.814,0.47 1.093,1.512 0.623,2.326Zm-21.625,-1.703c0.47,0.814 0.191,1.856 -0.623,2.326c-0.814,0.47 -1.855,0.191 -2.326,-0.623c-0.47,-0.814 -0.191,-1.856 0.624,-2.326c0.814,-0.47 1.855,-0.191 2.325,0.623Zm10.367,-0.986c0.908,-0.244 1.841,0.295 2.085,1.203c0.243,0.909 -0.296,1.842 -1.204,2.086c-0.908,0.243 -1.842,-0.296 -2.085,-1.204c-0.244,-0.909 0.295,-1.842 1.204,-2.085Zm-4.405,-1.029c0.665,0.665 0.665,1.743 0,2.408c-0.665,0.665 -1.743,0.665 -2.408,0c-0.665,-0.665 -0.665,-1.743 0,-2.408c0.665,-0.665 1.743,-0.665 2.408,0Zm11.082,-1.47c-0.243,0.909 -1.177,1.447 -2.085,1.204c-0.908,-0.243 -1.447,-1.177 -1.204,-2.085c0.244,-0.908 1.177,-1.448 2.085,-1.204c0.909,0.243 1.448,1.177 1.204,2.085Zm-7.706,-3.612c0.942,0 1.706,0.764 1.706,1.706c0,0.941 -0.764,1.705 -1.706,1.705c-0.941,0 -1.705,-0.764 -1.705,-1.705c0,-0.942 0.764,-1.706 1.705,-1.706Zm14.188,1.706c0,0.94 -0.762,1.702 -1.702,1.702c-0.941,0 -1.703,-0.762 -1.703,-1.702c0,-0.94 0.762,-1.703 1.703,-1.703c0.94,0 1.702,0.763 1.702,1.703Zm-24.97,0c0,0.94 -0.763,1.702 -1.703,1.702c-0.94,0 -1.702,-0.762 -1.702,-1.702c0,-0.94 0.762,-1.703 1.702,-1.703c0.94,0 1.703,0.763 1.703,1.703Zm6.39,-1.032c-0.244,0.909 -1.177,1.447 -2.085,1.204c-0.909,-0.243 -1.448,-1.176 -1.204,-2.085c0.243,-0.908 1.177,-1.447 2.085,-1.204c0.908,0.244 1.447,1.177 1.204,2.085Zm10.177,-4.752c0.665,0.664 0.665,1.742 0,2.407c-0.665,0.665 -1.743,0.665 -2.408,0c-0.665,-0.665 -0.665,-1.743 0,-2.407c0.665,-0.665 1.743,-0.665 2.408,0Zm-7.694,-1.91c0.908,-0.243 1.842,0.296 2.085,1.204c0.243,0.908 -0.296,1.842 -1.204,2.085c-0.908,0.244 -1.842,-0.296 -2.085,-1.204c-0.243,-0.908 0.296,-1.841 1.204,-2.085Zm14.196,0.6c0.47,0.814 0.191,1.856 -0.623,2.326c-0.814,0.47 -1.855,0.191 -2.326,-0.623c-0.47,-0.815 -0.191,-1.856 0.624,-2.326c0.814,-0.47 1.855,-0.191 2.325,0.623Zm-21.625,1.703c-0.47,0.814 -1.511,1.093 -2.325,0.623c-0.815,-0.47 -1.094,-1.512 -0.624,-2.326c0.471,-0.814 1.512,-1.093 2.326,-0.623c0.814,0.47 1.093,1.511 0.623,2.326Zm16.432,-6.896c0.815,0.47 1.094,1.511 0.623,2.325c-0.47,0.815 -1.511,1.094 -2.325,0.624c-0.815,-0.47 -1.094,-1.512 -0.623,-2.326c0.47,-0.814 1.511,-1.093 2.325,-0.623Zm-12.485,2.949c-0.814,0.47 -1.856,0.191 -2.326,-0.624c-0.47,-0.814 -0.191,-1.855 0.623,-2.325c0.815,-0.47 1.856,-0.191 2.326,0.623c0.47,0.814 0.191,1.856 -0.623,2.326Zm5.391,-4.85c0.942,0 1.706,0.763 1.706,1.705c0,0.942 -0.764,1.705 -1.706,1.705c-0.941,0 -1.705,-0.763 -1.705,-1.705c0,-0.942 0.764,-1.705 1.705,-1.705Z" style="fill:#fff;"/></g><path id="Photocrowd-white" d="M149.581,22.391c-2.979,0 -4.642,1.755 -4.642,5.543c0,3.788 1.755,5.566 4.734,5.566c2.633,0 4.527,-1.501 4.527,-4.55l0,-11.455c0,-0.416 -0.323,-0.739 -0.739,-0.739c-0.416,0 -0.739,0.323 -0.739,0.739l0,6.397c-0.531,-0.739 -1.663,-1.501 -3.141,-1.501Zm-25.544,0c-2.979,0 -4.85,1.755 -4.85,5.543c0,3.788 1.871,5.566 4.85,5.566c3.003,0 4.85,-1.778 4.85,-5.566c0,-3.788 -1.847,-5.543 -4.85,-5.543Zm-46.283,0c-2.98,0 -4.851,1.755 -4.851,5.543c0,3.788 1.871,5.566 4.851,5.566c3.002,0 4.85,-1.778 4.85,-5.566c0,-3.788 -1.848,-5.543 -4.85,-5.543Zm17.76,0c-2.979,0 -4.85,1.755 -4.85,5.543c0,3.788 1.871,5.566 4.85,5.566c3.002,0 4.85,-1.778 4.85,-5.566c0,-3.788 -1.848,-5.543 -4.85,-5.543Zm-10.023,0.323l-0.901,0c-0.393,0 -0.693,0.301 -0.693,0.693c0,0.393 0.3,0.693 0.693,0.693l0.901,0l0,6.374c0,1.686 0.993,2.911 2.817,2.911c0.393,0 0.716,-0.301 0.716,-0.693c0,-0.393 -0.323,-0.693 -0.716,-0.693c-0.785,0 -1.339,-0.531 -1.339,-1.525l0,-6.374l1.501,0c0.393,0 0.693,-0.3 0.693,-0.693c0,-0.392 -0.3,-0.693 -0.693,-0.693l-1.501,0l0,-2.425c0,-0.392 -0.324,-0.739 -0.739,-0.739c-0.393,0 -0.739,0.347 -0.739,0.739l0,2.425Zm-34.113,3.973l3.811,0c2.518,0 4.411,-1.501 4.411,-4.527c0,-3.072 -1.94,-4.504 -4.411,-4.504l-4.596,0c-0.439,0 -0.785,0.347 -0.785,0.786l0,14.157c0,0.439 0.346,0.786 0.785,0.786c0.439,0 0.785,-0.347 0.785,-0.786l0,-5.912Zm62.959,-3.418c0,-0.416 -0.323,-0.739 -0.739,-0.739c-0.416,0 -0.739,0.323 -0.739,0.739l0,9.376c0,0.416 0.323,0.74 0.739,0.74c0.416,0 0.739,-0.324 0.739,-0.74l0,-5.173c0,-2.125 1.085,-3.603 3.21,-3.603c0.393,0 0.716,-0.323 0.716,-0.716c0,-0.392 -0.323,-0.716 -0.716,-0.716c-1.593,0 -2.748,0.785 -3.21,1.848l0,-1.016Zm24.528,9.584c0.092,0.324 0.392,0.532 0.715,0.532c0.324,0 0.578,-0.185 0.693,-0.485l3.395,-9.308c0.047,-0.115 0.07,-0.231 0.07,-0.323c0,-0.416 -0.324,-0.739 -0.739,-0.739c-0.324,0 -0.578,0.184 -0.693,0.485l-2.679,7.644l-2.194,-7.644c-0.07,-0.231 -0.301,-0.485 -0.693,-0.485c-0.393,0 -0.624,0.254 -0.693,0.485l-2.194,7.644l-2.679,-7.644c-0.116,-0.301 -0.37,-0.485 -0.693,-0.485c-0.416,0 -0.739,0.323 -0.739,0.739c0,0.092 0.023,0.208 0.069,0.323l3.395,9.308c0.116,0.3 0.37,0.485 0.693,0.485c0.323,0 0.624,-0.208 0.716,-0.532l2.125,-7.321l2.125,7.321Zm13.857,-3.903c0,2.194 -1.27,3.21 -3.049,3.21c-2.125,0 -3.256,-1.339 -3.256,-4.226c0,-2.841 1.155,-4.203 3.256,-4.203c2.171,0 3.049,2.032 3.049,2.032l0,3.187Zm-28.685,3.21c-2.125,0 -3.349,-1.27 -3.349,-4.226c0,-2.91 1.224,-4.203 3.349,-4.203c2.125,0 3.349,1.293 3.349,4.203c0,2.956 -1.224,4.226 -3.349,4.226Zm-22.056,-4.226c0,3.788 1.778,5.566 4.758,5.566c1.87,0 2.979,-0.831 3.487,-1.247c0.231,-0.208 0.3,-0.37 0.3,-0.578c0,-0.369 -0.3,-0.669 -0.67,-0.669c-0.161,0 -0.277,0.046 -0.438,0.161c-0.532,0.393 -1.34,0.993 -2.679,0.993c-2.125,0 -3.257,-1.339 -3.257,-4.226c0,-2.841 1.132,-4.203 3.257,-4.203c1.524,0 2.147,0.692 2.494,1.085c0.162,0.185 0.323,0.277 0.554,0.277c0.37,0 0.67,-0.277 0.67,-0.67c0,-0.161 -0.046,-0.277 -0.162,-0.438c-0.369,-0.508 -1.501,-1.594 -3.556,-1.594c-2.98,0 -4.758,1.755 -4.758,5.543Zm-24.227,4.226c-2.125,0 -3.349,-1.27 -3.349,-4.226c0,-2.91 1.224,-4.203 3.349,-4.203c2.124,0 3.348,1.293 3.348,4.203c0,2.956 -1.224,4.226 -3.348,4.226Zm17.76,0c-2.125,0 -3.349,-1.27 -3.349,-4.226c0,-2.91 1.224,-4.203 3.349,-4.203c2.125,0 3.349,1.293 3.349,4.203c0,2.956 -1.224,4.226 -3.349,4.226Zm-44.136,-13.072l3.58,0c1.848,0 3.049,1.04 3.049,3.072c0,2.009 -1.178,3.095 -3.049,3.095l-3.58,0l0,-6.167Zm15.197,3.303c-1.501,0 -2.633,0.739 -3.071,1.617l0,-6.513c0,-0.416 -0.324,-0.739 -0.74,-0.739c-0.415,0 -0.739,0.323 -0.739,0.739l0,15.15c0,0.416 0.324,0.74 0.739,0.74c0.416,0 0.74,-0.324 0.74,-0.74l0,-5.704c0,-1.848 0.785,-3.234 3.071,-3.234c2.241,0 2.772,1.248 2.772,3.072l0,5.866c0,0.416 0.323,0.74 0.739,0.74c0.416,0 0.739,-0.324 0.739,-0.74l0,-6.166c0,-1.963 -0.693,-4.088 -4.25,-4.088Z" style="fill:#fff;"/></svg>